<svg width="128" height="128" viewBox="0 0 128 128" xmlns="http://www.w3.org/2000/svg">
<rect width="128" height="128" rx="16" fill="url(#paint0_linear_13329_8932)"/>
<path d="M39 100.155V84.5C48.4714 88.9727 56.4857 91.2091 62.3143 91.2091C69.9643 91.2091 73.6071 88.2273 73.6071 82.6364C73.6071 79.6545 71.7857 77.4182 68.5071 74.8091C67.05 73.6909 63.7714 71.8273 58.6714 69.5909C53.5714 67.3545 49.9286 65.1182 47.7429 62.8818C42.6429 58.4091 39.7286 52.4455 39.7286 45.7364C39.7286 39.0273 41.9143 33.4364 46.65 29.3364C51.3857 25.2364 57.9429 23 66.3214 23C73.2429 23 80.8929 24.8636 89.6357 28.5909L84.1714 41.6364C76.5214 38.6545 71.0571 36.7909 67.05 36.7909C63.0429 37.1636 60.1286 37.9091 58.6714 39.4C56.85 40.8909 56.1214 42.3818 56.1214 44.2455C56.1214 46.1091 56.4857 47.6 57.2143 48.7182C57.9429 49.8364 59.0357 50.9545 60.4929 52.0727C61.95 53.1909 65.9571 55.0545 72.15 58.4091C78.7071 61.3909 83.0786 64.7455 85.9929 68.4727C88.9071 72.2 90 76.3 90 81.5182C90 88.6 87.45 94.5636 82.35 98.6636C77.25 102.764 70.3286 105 61.5857 105C52.8429 105 45.5571 103.509 39 100.155Z" fill="white"/>
<defs>
<linearGradient id="paint0_linear_13329_8932" x1="128" y1="0" x2="0" y2="128" gradientUnits="userSpaceOnUse">
<stop stop-color="#9647AA"/>
<stop offset="1" stop-color="#8177D8"/>
</linearGradient>
</defs>
</svg>
