<?xml version="1.0" encoding="utf-8"?>
<!-- Generator: Adobe Illustrator 19.0.0, SVG Export Plug-In . SVG Version: 6.00 Build 0)  -->
<svg version="1.1" id="Layer_1" xmlns="http://www.w3.org/2000/svg" xmlns:xlink="http://www.w3.org/1999/xlink" x="0px" y="0px"
	 viewBox="-81 141 448 512" style="enable-background:new -81 141 448 512;" xml:space="preserve">
<path d="M352.9,207L301,155.1c-9-9-21.2-14.1-33.9-14.1H95c-26.5,0-48,21.5-48,48v48h-80c-26.5,0-48,21.5-48,48v320
	c0,26.5,21.5,48,48,48h224c26.5,0,48-21.5,48-48v-48h80c26.5,0,48-21.5,48-48V241C367,228.3,361.9,216,352.9,207z M185,605.1H-27
	c-3.3,0-6-2.7-6-6v-308c0-3.3,2.7-6,6-6h74v224c0,26.5,21.5,48,48,48h96v42C191,602.4,188.3,605.1,185,605.1z M313,509.1H101
	c-3.3,0-6-2.7-6-6v-308c0-3.3,2.7-6,6-6h106v88c0,13.3,10.7,24,24,24h88v202C319,506.4,316.3,509.1,313,509.1z M319,253.1h-64v-64
	h9.6c1.6,0,3.1,0.6,4.2,1.8l48.4,48.4c1.1,1.1,1.8,2.7,1.8,4.2V253.1z"/>
</svg>
